<?xml version="1.0" encoding="UTF-8" standalone="no"?>
<!-- Created with Inkscape (http://www.inkscape.org/) -->

<svg
   width="61.875389mm"
   height="63.946808mm"
   viewBox="0 0 61.875389 63.946808"
   version="1.1"
   id="svg1"
   xml:space="preserve"
   xmlns="http://www.w3.org/2000/svg"
   xmlns:svg="http://www.w3.org/2000/svg"><defs
     id="defs1" /><g
     id="layer1"
     transform="translate(-135.48583,-22.455613)"><path
       style="fill:#000000"
       d="m 145.70657,86.127409 c -0.27367,-0.1594 -0.46302,-0.5856 -0.46302,-1.04216 0,-0.64321 0.23378,-0.92202 1.39712,-1.6662 0.76842,-0.49155 1.89308,-1.45717 2.49926,-2.14583 1.07677,-1.22327 1.29459,-1.72677 2.43078,-5.61882 0.65187,-2.23298 1.62571,-3.26413 3.08275,-3.26413 0.49645,0 1.8863,0.40642 3.08855,0.90317 5.33805,2.20558 11.95258,2.50265 17.82596,0.80061 1.22445,-0.35483 3.74276,-1.40159 5.59624,-2.32613 1.85348,-0.92454 4.73918,-2.23981 6.41267,-2.92282 1.67349,-0.68301 3.60845,-1.65433 4.29991,-2.1585 1.56542,-1.14142 2.84384,-2.87179 2.84384,-3.8492 0,-0.89515 -1.96635,-5.60101 -3.63673,-8.70338 -4.44872,-8.26258 -10.68634,-14.935 -16.86848,-18.04431 -0.99445,-0.50017 -2.25965,-1.49112 -3.38675,-2.65264 -0.98959,-1.01981 -1.84327,-1.81018 -1.89708,-1.75638 -0.0538,0.0538 -0.01,0.84363 0.0976,1.75515 0.10748,0.91153 0.10949,2.28034 0.005,3.04181 -0.15159,1.09922 -0.10787,1.43901 0.21222,1.64907 0.22173,0.14553 0.77575,0.50588 1.23115,0.8008 2.02271,1.30991 3.61205,5.15582 4.31604,10.444 0.57126,4.29123 1.1615,6.04701 2.69249,8.00941 2.00318,2.56764 2.24847,3.23523 1.47348,4.01023 -0.78752,0.78751 -1.38217,0.48211 -2.76609,-1.42061 -1.81732,-2.49859 -3.7168,-4.14924 -6.06259,-5.26841 -1.67261,-0.79799 -2.31273,-0.95558 -4.25968,-1.04866 -3.36454,-0.16087 -4.82264,0.23239 -6.60292,1.78082 -1.65118,1.43616 -4.85321,3.57317 -6.15582,4.10836 -0.96187,0.39519 -1.87826,0.17664 -2.14209,-0.51088 -0.26011,-0.67784 0.27058,-1.40225 1.47884,-2.01866 0.60611,-0.30922 1.7389,-0.98508 2.51732,-1.50191 l 1.41529,-0.9397 -1.89715,-0.87875 c -2.64153,-1.22353 -3.74414,-1.48277 -6.33017,-1.48834 -3.27053,-0.007 -6.98067,1.26957 -9.77485,3.36338 -1.13794,0.85272 -1.73659,0.86302 -2.2764,0.0392 -0.32458,-0.49537 -0.35556,-0.76745 -0.13443,-1.18065 0.66864,-1.24935 5.23348,-3.67363 8.26147,-4.38747 1.99775,-0.47096 5.47131,-0.51906 7.41691,-0.10271 0.77115,0.16503 2.31434,0.70081 3.42933,1.19063 2.24927,0.98812 3.38789,1.08978 5.38109,0.4804 3.16816,-0.96859 7.44297,-0.74056 10.36812,0.55308 0.80942,0.35797 1.55359,0.65085 1.6537,0.65085 0.23563,0 -0.17627,-3.63879 -0.64543,-5.70181 -0.81103,-3.5663 -2.40016,-6.46902 -3.54154,-6.46902 -0.2446,0 -0.67277,0.38695 -0.95151,0.85989 -0.77962,1.3228 -2.69434,3.26183 -4.13174,4.18421 -3.81784,2.4499 -9.41066,2.44626 -13.27975,-0.009 -2.98111,-1.89148 -5.14531,-5.19183 -5.74812,-8.76569 -1.11049,-6.58373 3.58503,-13.0756 10.32923,-14.28085 4.47455,-0.79965 9.54604,1.22817 12.15406,4.85977 0.71852,1.00053 1.06912,1.23191 2.44724,1.61506 1.5913,0.44242 1.93764,0.70377 3.99708,3.01624 0.40979,0.46014 1.60042,1.28424 2.64583,1.83133 6.82495,3.57163 13.81675,11.27013 18.27403,20.12112 1.66001,3.29634 3.33849,7.69555 3.33237,8.73395 -0.0175,2.96297 -3.28362,6.29 -7.91696,8.06457 -1.09951,0.42111 -4.09708,1.77156 -6.66126,3.00101 -2.91308,1.39672 -5.64279,2.5008 -7.27604,2.94291 -2.3974,0.64897 -3.03026,0.70808 -7.64098,0.71367 -5.53428,0.007 -7.02467,-0.23284 -10.77995,-1.73254 -1.12678,-0.45 -2.20609,-0.75777 -2.39846,-0.68396 -0.19237,0.0738 -0.62091,1.12361 -0.95231,2.33287 -0.82219,3.00008 -1.46064,4.26186 -3.01956,5.96757 -1.20506,1.31852 -3.61812,3.00385 -4.28097,2.98991 -0.14552,-0.003 -0.47294,-0.12692 -0.7276,-0.27524 z m 14.12393,-41.6847 c 1.45572,-0.45686 3.43977,-1.81487 4.45317,-3.04803 4.19395,-5.10339 2.41327,-12.70221 -3.63659,-15.51866 -1.30107,-0.6057 -1.8655,-0.70499 -4.03109,-0.7091 -2.3098,-0.004 -2.66243,0.0662 -4.26112,0.85281 -2.10164,1.03409 -3.95972,2.92787 -4.94286,5.03784 -0.59815,1.28374 -0.70536,1.87361 -0.70778,3.89415 -0.002,2.12806 0.0863,2.56977 0.83573,4.15415 2.24681,4.75015 7.2448,6.9204 12.29054,5.33684 z m -5.1169,-2.31348 c -3.21339,-0.88525 -5.49527,-3.87108 -5.49983,-7.19652 -0.005,-3.82746 3.49514,-7.25703 7.40686,-7.25703 2.7192,0 5.26431,1.58156 6.54088,4.06457 0.92236,1.79405 0.99397,4.47324 0.1678,6.27783 -1.47614,3.22433 -5.26761,5.0335 -8.61571,4.11115 z m 4.56258,-3.18378 c 2.47182,-1.63577 2.78226,-5.32694 0.61818,-7.35033 -3.08814,-2.88739 -8.03623,-0.7221 -8.03623,3.51666 0,1.13213 0.69521,2.73749 1.50107,3.46624 1.55079,1.40238 4.11267,1.56147 5.91698,0.36743 z m -23.5629,42.03742 c -0.47533,-0.57272 -0.18093,-3.21337 0.65231,-5.85103 0.89632,-2.83738 2.71899,-5.57117 5.35592,-8.03324 3.71852,-3.47195 6.15523,-4.50394 6.58562,-2.78913 0.21475,0.85563 0.0679,1.04396 -1.69204,2.16977 -1.96495,1.25697 -4.84404,4.05202 -6.05849,5.88166 -1.16039,1.74821 -2.44837,5.30958 -2.45326,6.78352 -0.002,0.58608 -0.18889,1.33022 -0.41542,1.65364 -0.47481,0.67788 -1.48682,0.7726 -1.97464,0.18481 z m 15.17823,-11.48445 c -1.20061,-0.54515 -1.60396,-1.28708 -1.1554,-2.12524 0.30672,-0.57311 1.68747,-0.76365 1.98973,-0.27458 0.0899,0.14552 0.90063,0.26197 1.80155,0.25877 1.82747,-0.006 3.33236,-0.56878 4.94899,-1.84917 1.9557,-1.54895 4.48557,-2.06417 5.7583,-1.17272 1.3106,0.91798 0.42943,2.23395 -1.49586,2.23395 -1.05749,0 -1.51559,0.18537 -2.94416,1.19131 -3.14475,2.21441 -6.43774,2.85713 -8.90315,1.73768 z m 32.18211,-2.6744 c -0.43639,-0.81539 -0.0904,-1.47109 1.16405,-2.20627 0.62398,-0.36568 1.57104,-1.14805 2.10457,-1.7386 0.83089,-0.9197 0.97006,-1.25449 0.97006,-2.33367 0,-0.76951 -0.21365,-1.65854 -0.54887,-2.28399 -0.67165,-1.25316 -0.50672,-2.19959 0.42404,-2.4332 0.86467,-0.21702 1.38357,0.23641 2.14872,1.8776 0.71362,1.53066 0.81954,3.64512 0.25078,5.00636 -0.79968,1.9139 -4.05384,4.65093 -5.52967,4.65093 -0.42864,0 -0.80576,-0.2067 -0.98368,-0.53916 z"
       id="path4" /></g></svg>
