<?xml version="1.0" encoding="UTF-8" standalone="no"?>
<!-- Created with Inkscape (http://www.inkscape.org/) -->

<svg
   width="63.981506mm"
   height="67.732353mm"
   viewBox="0 0 63.981506 67.732353"
   version="1.1"
   id="svg1"
   xml:space="preserve"
   xmlns="http://www.w3.org/2000/svg"
   xmlns:svg="http://www.w3.org/2000/svg"><defs
     id="defs1" /><g
     id="layer1"
     transform="translate(13.645455,-102.51789)"><path
       style="fill:#000000"
       d="m 24.139292,169.52123 c -0.865803,-0.8658 -0.679692,0.98595 -2.043207,-20.32933 -1.157237,-18.09062 -1.22703,-17.00054 1.244775,-19.44183 0.862536,-0.85189 1.568246,-1.75154 1.568246,-1.99923 0,-0.2477 -0.700234,-1.17957 -1.556077,-2.07084 -1.294791,-1.3484 -1.611145,-1.86657 -1.884039,-3.08599 -0.537957,-2.40384 0.0019,-3.72001 3.025812,-7.37701 1.383786,-1.67349 2.787239,-3.18978 3.118785,-3.36953 0.331546,-0.17976 1.049295,-0.32859 1.594998,-0.33073 l 0.992188,-0.004 v -1.14087 c 0,-0.96837 -0.123692,-1.23232 -0.818075,-1.7457 -2.095267,-1.5491 -1.874756,-4.60516 0.410534,-5.6896 0.715425,-0.33949 1.887724,-0.41948 6.136068,-0.41868 5.867326,0.001 6.494335,0.16094 7.384564,1.88246 0.711224,1.37535 0.377394,2.81235 -0.923047,3.97334 -0.929845,0.83013 -1.077545,1.11119 -1.077545,2.05052 v 1.08853 h 1.036694 c 0.570181,0 1.232286,0.0751 1.471343,0.16679 0.703243,0.26986 5.428895,6.11466 6.014853,7.43931 1.039788,2.35061 0.152434,5.31073 -2.145419,7.15689 -0.597192,0.4798 -1.085804,1.07958 -1.085804,1.33286 0,0.25327 0.604929,1.05133 1.344288,1.77347 1.921994,1.87722 2.413258,2.95879 2.385748,5.2525 -0.03547,2.95743 -2.099385,33.87245 -2.295469,34.38343 -0.449202,1.17061 -1.070596,1.23225 -12.421989,1.23225 H 24.868401 Z m 21.935924,-2.11516 c -3.06e-4,-0.25466 0.483049,-7.8449 1.074122,-16.86719 0.591073,-9.02229 1.006692,-16.75322 0.923598,-17.17984 -0.0903,-0.46363 -0.833333,-1.48237 -1.847001,-2.53235 -2.566032,-2.65794 -2.587073,-4.06969 -0.09248,-6.20497 1.134277,-0.9709 1.76756,-1.84344 1.785022,-2.4594 0.0074,-0.25994 -2.599746,-0.33073 -12.179287,-0.33073 H 23.550527 l 0.177603,0.59531 c 0.09768,0.32742 0.883408,1.31672 1.746058,2.19844 1.965085,2.00853 2.210714,2.9688 1.200381,4.6928 -0.374501,0.63904 -1.116163,1.49387 -1.648137,1.89963 -1.826454,1.3931 -1.80087,0.51841 -0.571636,19.54383 l 1.105315,17.10749 H 35.81794 c 9.593184,0 10.257793,-0.03 10.257273,-0.46302 z m -18.065867,-2.03079 c -0.262927,-0.26292 -0.431061,-1.36464 -0.555201,-3.63802 -0.09793,-1.79348 -0.247335,-3.92403 -0.332,-4.73456 -0.159115,-1.52324 0.229691,-2.36278 1.09425,-2.36278 0.924959,0 1.127513,0.72772 1.322353,4.75088 l 0.192769,3.98037 h 2.765562 c 1.521059,0 2.99586,0.12325 3.277334,0.27389 0.572061,0.30616 0.680344,1.30379 0.194273,1.78986 -0.48956,0.48956 -7.462388,0.43731 -7.95934,-0.0596 z m 0.350441,-47.52879 c 1.211566,-1.78411 1.548395,-2.01094 2.349475,-1.58222 0.689495,0.36901 0.695122,0.96016 0.01969,2.06798 -0.290497,0.47646 -0.528177,0.92295 -0.528177,0.99219 0,0.0692 1.012031,0.1259 2.248958,0.1259 h 2.248958 v -1.46088 c 0,-1.29685 0.07339,-1.49432 0.653623,-1.7587 1.017059,-0.4634 1.463044,0.0843 1.463044,1.79677 v 1.42281 h 2.385004 2.385004 l -0.68866,-1.04064 c -0.764673,-1.1555 -0.696465,-1.99737 0.18448,-2.27697 0.65992,-0.20945 1.269351,0.31258 2.373313,2.03296 l 0.824355,1.28465 h 1.559918 c 0.857955,0 1.559919,-0.069 1.559919,-0.15321 0,-0.0843 -0.977939,-1.33442 -2.173197,-2.77813 l -2.173197,-2.62491 -7.285657,0.006 -7.285657,0.006 -1.984375,2.42499 c -2.739874,3.34824 -2.679919,3.11927 -0.816756,3.11927 h 1.590789 z m 10.836816,-7.39199 v -1.05833 h -3.439584 -3.439583 v 1.05833 1.05834 h 3.439583 3.439584 z m 1.839996,-3.82189 c 0.17451,-0.21027 0.278386,-0.65676 0.230835,-0.99219 l -0.08646,-0.60987 h -5.423958 -5.423958 l -0.08646,0.60987 c -0.182323,1.28613 0.171947,1.3745 5.510414,1.3745 4.004134,0 5.023555,-0.0738 5.27958,-0.38231 z M 12.341398,165.333 c -4.7719308,-0.86518 -7.8189828,-2.3479 -9.9022198,-4.8185 l -1.084138,-1.28572 -1.65057103,0.36565 c -0.90781297,0.2011 -2.78166397,0.38626 -4.16411197,0.41146 -2.225677,0.0406 -2.643819,-0.0281 -3.651093,-0.59948 -1.389416,-0.78817 -1.8947032,-1.57585 -2.9758192,-4.63899 -0.461317,-1.30705 -1.136972,-3.20989 -1.501456,-4.22854 -0.364485,-1.01865 -0.790811,-3.0014 -0.947392,-4.40612 -0.366743,-3.2901 0.180621,-8.00627 1.679783,-14.47326 1.391166,-6.00112 2.0033672,-9.67241 2.3568412,-14.13365 0.338202,-4.26848 0.912668,-6.09586 2.435789,-7.74825 1.876643,-2.03592 6.93500597,-4.17436 13.125109,-5.54869 4.6188808,-1.02549 5.1126258,-0.82277 8.5642818,3.51619 1.773164,2.22899 2.176605,3.34945 1.804266,5.01089 -0.201991,0.90133 -0.171125,1.32234 0.141228,1.92636 0.827065,1.59937 0.401018,3.67534 -1.028323,5.01063 -0.865589,0.80864 -3.037018,1.04931 -4.393758,0.48699 -0.899198,-0.37269 -0.989589,-0.35101 -3.2305068,0.77471 -2.860009,1.43673 -4.251229,1.93524 -5.400757,1.93524 -0.491027,0 -0.892776,0.0409 -0.892776,0.0909 0,0.35929 1.243407,3.56965 2.11754,5.46728 1.162238,2.52307 2.115793,5.87384 2.115793,7.43486 v 1.00211 l 1.673267,-0.78302 c 2.4796898,-1.16039 5.3088228,-1.50318 7.9423808,-0.96235 2.22503,0.45693 2.819768,0.77512 2.819768,1.50858 0,0.91275 -0.672767,1.15569 -2.297092,0.82948 -6.3511048,-1.27549 -11.6346368,1.68818 -12.8575438,7.21211 -0.296345,1.33861 -0.459352,1.63053 -0.950465,1.70216 -0.326026,0.0476 -0.778343,-0.0676 -1.005149,-0.25578 -0.86859303,-0.72087 0.199916,-4.46171 1.917697,-6.71384 0.682645,-0.89499 0.707269,-1.03336 0.540268,-3.03583 -0.201146,-2.41192 -0.943546,-5.01738 -2.061131,-7.23355 -1.07121203,-2.12421 -2.51190303,-6.53247 -2.894403,-8.85636 -0.294088,-1.78673 -0.379466,-1.95752 -1.136845,-2.27411 -1.066158,-0.44567 -1.541772,-1.04206 -1.4345,-1.79878 0.112567,-0.79406 1.017269,-0.92575 2.271413,-0.33062 0.81490997,0.3867 1.32800897,0.4202 3.486334,0.2276 4.831624,-0.43115 6.449439,-0.20619 8.7485008,1.21646 1.818725,1.12543 2.752571,1.23671 3.564499,0.42478 1.572071,-1.57207 0.449816,-2.83506 -4.2259578,-4.7559 -3.251293,-1.33565 -3.439583,-1.45345 -3.439583,-2.15189 0,-1.39518 0.597,-1.39839 4.0071158,-0.0215 1.725149,0.69655 3.285462,1.32587 3.467363,1.39849 0.490181,0.19572 0.413551,-1.00779 -0.113586,-1.78392 -0.606839,-0.89348 -3.035987,-3.75482 -3.524435,-4.1515 -0.5922218,-0.48096 -1.6970978,-0.40828 -4.6302078,0.30459 -3.327221,0.80866 -6.954869,2.07803 -8.939005,3.12791 -3.002315,1.58863 -3.658522,2.99592 -4.152966,8.90635 -0.332595,3.97575 -0.769349,6.72388 -1.748554,11.00222 -1.9192522,8.38558 -2.0604152,9.32967 -2.0769662,13.89062 -0.01567,4.31714 -0.006,4.39207 0.868873,6.74688 0.4865932,1.30968 1.0585752,2.91703 1.2710722,3.57187 0.710622,2.1899 1.431268,3.38167 2.249884,3.72076 1.025779,0.42489 4.805022,0.18502 7.21889597,-0.45819 l 1.81304203,-0.48311 0.689529,0.92193 c 2.667882,3.56704 5.686027,5.11397 11.2952068,5.78925 2.071251,0.24935 2.74766,0.80123 2.129757,1.73764 -0.454658,0.68902 -1.32127,0.74498 -4.004186,0.25855 z M 5.4710482,119.69422 c 1.086031,-0.45212 2.039218,-0.92658 2.118193,-1.05437 0.267322,-0.43253 -1.207781,-0.57517 -3.988247,-0.38566 l -2.76897003,0.18874 v 0.98877 c 0,0.54383 0.0893,1.07952 0.19843703,1.19043 0.345827,0.35142 2.397139,-0.0772 4.440587,-0.92791 z m 7.4952758,41.14703 c -3.6974298,-0.6692 -6.7390968,-2.1935 -7.4380268,-3.72748 -0.274206,-0.60182 -0.236725,-0.74457 0.312182,-1.18905 0.571085,-0.46244 0.670899,-0.47036 1.181111,-0.0937 2.686868,1.98352 3.5013528,2.32722 6.6427248,2.80312 2.771442,0.41986 3.16411,0.5705 3.261456,1.2512 0.199101,1.39223 -0.549811,1.57304 -3.959447,0.95592 z m -18.7806458,-5.4673 c -0.22828,-0.18544 -0.662544,-1.11106 -0.965031,-2.05695 -0.302487,-0.94588 -0.625519,-1.9128 -0.717849,-2.14869 -0.205501,-0.52505 0.505828,-1.29089 1.198998,-1.29089 0.524271,0 1.34058,1.32619 1.676834,2.7242 0.175755,0.73073 0.196687,0.73771 1.701791,0.56742 1.207868,-0.13665 1.594758,-0.087 1.865823,0.23965 0.48625997,0.58591 0.26918597,1.30916 -0.498706,1.6616 -1.087187,0.49898 -3.784792,0.69118 -4.26186,0.30366 z m 11.473133,-9.24224 c -0.484787,-0.48479 -0.40001,-1.24978 0.3067,-2.76755 1.322286,-2.8398 5.2155108,-4.54073 8.7254028,-3.81208 2.120754,0.44027 2.815501,1.28607 1.849702,2.25187 -0.250247,0.25024 -0.610858,0.35683 -0.859895,0.25415 -0.235899,-0.0973 -1.218844,-0.23818 -2.184325,-0.31317 -1.495877,-0.11617 -1.971772,-0.0373 -3.218731,0.5336 -1.5407528,0.70538 -2.2569168,1.52122 -2.7057798,3.08239 -0.206146,0.71698 -0.429759,0.96331 -0.9279,1.02214 -0.360967,0.0426 -0.804295,-0.0705 -0.985174,-0.25135 z"
       id="path3" /></g></svg>
