<?xml version="1.0" encoding="UTF-8" standalone="no"?>
<!-- Created with Inkscape (http://www.inkscape.org/) -->

<svg
   width="67.733322mm"
   height="67.659698mm"
   viewBox="0 0 67.733322 67.659698"
   version="1.1"
   id="svg1"
   xml:space="preserve"
   xmlns="http://www.w3.org/2000/svg"
   xmlns:svg="http://www.w3.org/2000/svg"><defs
     id="defs1" /><g
     id="layer1"
     transform="translate(-53.818281,-23.831207)"><g
       id="g1"><path
         style="fill:#000000"
         d="m 55.897514,90.920065 c -0.52991,-0.30727 -1.214519,-1.00536 -1.521354,-1.5513 -0.532088,-0.94672 -0.557882,-1.35016 -0.557882,-8.72577 0,-7.38641 0.02513,-7.77787 0.560357,-8.73018 0.889537,-1.58272 2.123064,-2.11774 4.882605,-2.11774 h 2.328206 l 4.151592,-4.10091 c 4.22819,-4.17658 5.254715,-4.89492 6.994948,-4.89492 1.438631,0 2.527077,0.57702 4.408703,2.33718 l 1.71773,1.60686 1.566992,-1.60424 c 0.861843,-0.88233 1.950123,-1.76974 2.418393,-1.97202 1.83022,-0.79061 3.74217,-0.32286 5.62189,1.37535 1.23258,1.11357 1.04717,1.20092 2.40618,-1.13357 0.44019,-0.75614 1.00363,-1.43581 1.2521,-1.51037 0.24847,-0.0746 2.65442,0.0865 5.34655,0.35794 l 4.894786,0.49352 1.06835,-1.03366 c 0.58759,-0.56851 1.25835,-1.03366 1.49056,-1.03366 0.68777,0 8.78886,3.68469 9.14891,4.16128 0.22296,0.29513 0.33073,1.49899 0.33073,3.6945 v 3.25672 h 2.01449 c 2.42148,0 3.71586,0.59996 4.5689,2.11774 0.53523,0.95231 0.56035,1.34377 0.56035,8.73018 0,7.38641 -0.0251,7.77786 -0.56035,8.73018 -0.3082,0.54836 -1.00902,1.24918 -1.55738,1.55738 l -0.99702,0.56035 -30.787926,-0.006 -30.787938,-0.006 z M 118.49,88.429305 c 0.34705,-0.34706 0.41577,-1.19979 0.41577,-5.15938 v -4.7436 h -7.88458 c -8.28526,0 -8.51958,-0.0328 -8.51958,-1.19063 0,-1.15787 0.23432,-1.19062 8.51958,-1.19062 h 7.88458 v -1.43631 c 0,-2.49892 3.18094,-2.26786 -31.220826,-2.26786 -27.273845,0 -30.431909,0.0426 -30.805059,0.41578 -0.343173,0.34317 -0.415774,1.15168 -0.415774,4.63021 v 4.21443 h 7.453646 c 6.564399,0 7.511371,0.0522 7.937499,0.43788 0.600389,0.54335 0.615104,1.09522 0.04597,1.7241 -0.404594,0.44707 -1.008011,0.48385 -7.9375,0.48385 h -7.499618 v 1.83319 c 0,1.31375 0.117809,1.95099 0.415774,2.24896 0.37315,0.37315 3.531214,0.41577 30.805059,0.41577 27.273839,0 30.431909,-0.0426 30.805059,-0.41577 z m -43.883032,-4.49792 c -0.793943,-0.79394 -0.223998,-2.23006 0.885034,-2.23006 0.556995,0 1.345025,0.80201 1.345025,1.36889 0,0.50925 -0.836263,1.27694 -1.390997,1.27694 -0.232809,0 -0.610387,-0.1871 -0.839062,-0.41577 z m 2.097767,-17.31131 c -2.65527,-2.66221 -3.296262,-3.175 -3.968749,-3.175 -0.672488,0 -1.31348,0.51279 -3.96875,3.175 l -3.166728,3.175 h 7.135478 7.135478 z m 12.149369,-0.003 c -3.97996,-3.94971 -4.20034,-4.00268 -6.59312,-1.58467 l -1.570934,1.5875 1.570934,1.5875 1.57094,1.5875 4.10932,-0.003 4.10932,-0.003 z m 22.902976,0.46585 -0.005,-2.71198 -3.219,-1.40521 -3.21901,-1.40521 -4.11719,4.11719 -4.117186,4.11719 h 7.341126 7.34114 z m -14.414846,-1.25677 c 1.44975,-1.45521 2.57861,-2.65385 2.50858,-2.66365 -0.07,-0.01 -1.57288,-0.16356 -3.33966,-0.34169 l -3.21234,-0.32388 -0.82256,1.37523 c -0.45241,0.75637 -0.82256,1.47194 -0.82256,1.59014 0,0.2392 2.67535,3.00968 2.90634,3.00968 0.0805,0 1.33245,-1.19062 2.7822,-2.64583 z m -37.972338,-1.06699 c -0.245337,-0.45841 -0.199876,-0.81164 0.234379,-1.82109 0.653452,-1.51899 0.537622,-2.11563 -0.749134,-3.85879 -1.692876,-2.29334 -2.040792,-4.34898 -1.07179,-6.33261 1.084174,-2.21941 2.770335,-3.36261 3.654927,-2.47802 0.52508,0.52508 0.366028,1.21221 -0.608542,2.62899 -0.577457,0.83947 -0.925517,1.65873 -0.924649,2.17643 0.0014,0.81682 0.14213,1.09193 1.711835,3.34567 1.093557,1.5701 1.246652,4.12161 0.341208,5.68662 -0.481485,0.83222 -0.790872,1.07577 -1.448084,1.13993 -0.634735,0.062 -0.908992,-0.0552 -1.14015,-0.48713 z m 17.136402,-6.09795 c -0.670373,-0.39046 -0.606988,-1.73523 0.09961,-2.11339 0.862591,-0.46164 1.818615,0.0733 1.818615,1.01766 0,1.22929 -0.852675,1.71636 -1.918229,1.09573 z m 34.924992,0 c -0.56336,-0.32813 -0.59402,-1.50315 -0.0577,-2.21219 0.58176,-0.76915 0.47179,-2.07088 -0.26065,-3.0853 -0.357,-0.49447 -0.9801,-1.43314 -1.38465,-2.08595 -1.37236,-2.21454 -0.839,-4.99628 1.38425,-7.21953 0.85994,-0.85994 1.26542,-0.89952 1.97243,-0.19251 0.67429,0.6743 0.66603,0.79347 -0.1302,1.87911 -1.67733,2.28696 -1.75418,3.43715 -0.34642,5.18478 1.73279,2.15114 2.19535,4.17663 1.39257,6.09795 -0.7405,1.77226 -1.50123,2.2559 -2.5696,1.63364 z m -34.924992,-4.49792 c -0.403253,-0.23487 -0.463021,-0.71197 -0.463021,-3.69612 v -3.42644 h -1.455208 -1.455208 v 2.00177 c 0,2.41048 -0.26886,3.02532 -1.322917,3.02532 -1.076086,0 -1.322917,-0.61505 -1.322917,-3.29645 0,-2.238 -0.01117,-2.27702 -0.727604,-2.54158 -3.566106,-1.31686 -6.974823,-4.30022 -7.991469,-6.99426 -1.643114,-4.35414 -0.580035,-8.42807 3.069708,-11.76373 3.787836,-3.46187 9.963052,-4.59056 15.30484,-2.79738 2.325402,0.78061 3.676642,1.5809 5.690362,3.3702 0.80036,0.71116 2.11005,1.61505 2.91041,2.00863 l 1.45521,0.71561 15.204136,0.0765 c 13.55929,0.0682 15.25524,0.12274 15.67656,0.50403 0.40969,0.37076 0.47242,0.90856 0.47242,4.04969 0,3.14112 -0.0627,3.67893 -0.47242,4.04969 -0.42132,0.38129 -2.11727,0.43582 -15.67656,0.50403 l -15.204136,0.0765 -1.45521,0.7156 c -0.80036,0.39359 -2.11005,1.29747 -2.91041,2.00864 -1.96808,1.74874 -3.5063,2.68323 -5.556254,3.37549 l -1.719791,0.58076 -0.07417,3.52147 c -0.04305,2.04424 -0.195382,3.66753 -0.363126,3.86965 -0.342059,0.41216 -0.97097,0.43648 -1.61323,0.0624 z m -0.463021,-10.66994 v -0.90156 l -1.455569,-0.0906 -1.455569,-0.0906 3.61e-4,0.99218 3.61e-4,0.99219 h 1.455208 1.455208 z m 4.631358,-0.3796 c 0.873759,-0.41336 2.351409,-1.41679 3.283659,-2.22984 0.93226,-0.81305 2.25034,-1.78052 2.92908,-2.14993 2.64333,-1.43868 3.18465,-1.48283 18.183366,-1.48283 h 13.83503 v -1.85208 -1.85209 h -13.83503 c -14.998716,0 -15.540036,-0.0441 -18.183366,-1.48282 -0.67874,-0.36941 -1.99734,-1.33783 -2.93023,-2.15205 -2.984759,-2.60505 -6.222725,-3.70557 -10.056295,-3.41791 -5.89761,0.44252 -10.293608,4.35101 -10.292779,9.15133 2.88e-4,1.66891 1.204566,4.10558 2.714162,5.49167 1.008097,0.92563 3.520229,2.46395 4.023708,2.46395 0.0776,0 0.141087,-0.46654 0.141087,-1.03675 0,-0.88411 -0.126604,-1.11512 -0.859895,-1.56897 -1.257351,-0.77821 -2.211888,-1.86538 -2.822863,-3.21511 -1.48514,-3.28089 0.237863,-6.85082 4.199852,-8.70177 1.255443,-0.58651 1.830173,-0.68548 3.980823,-0.68548 2.149422,0 2.724348,0.0989 3.96875,0.68258 1.856626,0.87088 3.01521,1.85549 3.84058,3.26387 1.83218,3.12638 0.65687,6.76739 -2.857175,8.85135 -1.362242,0.80786 -1.512572,0.98536 -1.512572,1.78594 0,1.09032 0.208107,1.10298 2.250108,0.13694 z m -4.684816,-5.32161 c 0.08513,-2.13012 0.328004,-2.65766 1.223563,-2.65766 0.917169,0 1.211145,0.52662 1.211145,2.16959 0,1.83724 0.35088,1.97655 1.547041,0.6142 2.668786,-3.03959 -0.254374,-7.01712 -5.157013,-7.01712 -3.051581,0 -5.915028,2.17537 -5.915028,4.49366 0,2.3616 2.910602,4.57671 5.820834,4.42993 l 1.190625,-0.06 z"
         id="path1" /></g></g></svg>
