<?xml version="1.0" encoding="UTF-8" standalone="no"?>
<!-- Created with Inkscape (http://www.inkscape.org/) -->

<svg
   width="76.730759mm"
   height="77.008095mm"
   viewBox="0 0 76.730759 77.008095"
   version="1.1"
   id="svg1"
   xml:space="preserve"
   xmlns:inkscape="http://www.inkscape.org/namespaces/inkscape"
   xmlns:sodipodi="http://sodipodi.sourceforge.net/DTD/sodipodi-0.dtd"
   xmlns="http://www.w3.org/2000/svg"
   xmlns:svg="http://www.w3.org/2000/svg"><sodipodi:namedview
     id="namedview1"
     pagecolor="#ffffff"
     bordercolor="#000000"
     borderopacity="0.25"
     inkscape:showpageshadow="2"
     inkscape:pageopacity="0.0"
     inkscape:pagecheckerboard="0"
     inkscape:deskcolor="#d1d1d1"
     inkscape:document-units="mm" /><defs
     id="defs1" /><g
     inkscape:label="Layer 1"
     inkscape:groupmode="layer"
     id="layer1"
     transform="translate(-59.678762,-137.27978)"><rect
       style="fill:none;fill-rule:evenodd;stroke:none;stroke-width:1.2;stroke-linecap:round;stroke-linejoin:round;stroke-miterlimit:12.4;paint-order:stroke fill markers"
       id="rect1"
       width="76.730766"
       height="77.008087"
       x="59.678761"
       y="137.27979"
       inkscape:export-filename="swimmer.svg"
       inkscape:export-xdpi="96"
       inkscape:export-ydpi="96" /><path
       style="fill:#000000;stroke:#000000;stroke-width:0.207675;stroke-dasharray:none"
       d="m 85.479599,211.33414 c -0.969873,-0.69984 -1.28888,-1.76586 -1.173339,-3.92093 0.04925,-0.91802 -0.03869,-1.02406 -0.930466,-1.12218 -2.648722,-0.29146 -8.940397,2.13848 -11.622393,4.48875 -1.134041,0.99375 -1.891679,1.09559 -2.160625,0.29035 -0.274182,-0.8209 1.634977,-2.60075 4.472965,-4.16998 2.973497,-1.64415 5.448003,-2.37125 8.369326,-2.45918 3.009613,-0.0904 3.481266,0.33664 3.603688,3.26438 l 0.08673,2.07341 1.072452,0.10275 c 0.908577,0.0871 1.313105,-0.13095 2.647255,-1.42685 2.203049,-2.13986 5.061872,-4.07534 7.310522,-4.94933 3.266416,-1.2696 8.824176,-1.2811 8.824176,-0.0183 0,0.15089 -0.27489,0.63848 -0.61087,1.08351 -1.18817,1.57402 -0.15766,3.76573 1.98805,4.22819 1.02975,0.22196 1.75987,-0.007 6.9249,-2.19404 1.81163,-0.76628 3.84016,-0.91645 5.07763,-0.37592 0.42353,0.18501 1.27271,0.80048 1.88708,1.36771 1.11247,1.02713 1.12782,1.03042 3.74981,0.80302 2.80902,-0.24363 4.18425,0.18026 4.76021,1.46718 0.59187,1.3225 -0.45251,1.93411 -1.47943,0.86639 -0.56139,-0.58373 -1.06539,-0.6325 -4.3892,-0.42473 -1.84314,0.11526 -2.03018,0.0551 -3.53222,-1.13332 -2.16197,-1.71072 -3.38878,-1.68773 -7.53446,0.14127 -2.32252,1.02463 -3.60488,1.39937 -4.81848,1.40807 -2.87236,0.0206 -4.76834,-1.84608 -4.76834,-4.69456 v -1.57817 l -2.08348,0.19341 c -3.707621,0.34418 -6.213467,1.66898 -10.588114,5.59778 -2.00981,1.80496 -3.616318,2.14983 -5.08335,1.09125 z M 81.68412,201.15469 c -1.217075,-0.89601 -2.015961,-2.95733 -1.758121,-4.53641 0.179651,-1.10017 0.124455,-1.23854 -0.625569,-1.56834 -4.079101,-1.79355 -8.372037,-0.81341 -11.439561,2.61177 -2.231787,2.49205 -3.428595,1.29716 -1.325867,-1.32372 3.533663,-4.4044 9.511715,-5.50935 14.369478,-2.65595 1.215541,0.71396 1.655187,1.74474 0.955957,2.24125 -0.5784,0.4107 -0.309755,2.20939 0.462492,3.09663 0.670735,0.7706 0.937447,0.85206 2.349259,0.71756 1.375195,-0.13101 2.00112,-0.46721 4.58485,-2.46251 3.574029,-2.76002 6.307438,-4.04737 9.671923,-4.5551 4.512179,-0.68091 8.245899,0.46051 6.609679,2.02064 -0.61313,0.58466 -0.55742,2.4779 0.093,3.15403 1.37035,1.42481 3.41507,1.01852 6.5253,-1.29665 2.83779,-2.11233 3.7334,-2.57136 5.40328,-2.76936 1.83214,-0.21727 3.40282,0.44316 4.19319,1.76314 1.49156,2.49098 1.53852,2.51343 4.01428,1.91906 1.78988,-0.42968 2.38378,-0.45504 3.00781,-0.12836 1.12389,0.58831 0.8682,1.55598 -0.44332,1.6777 -0.56488,0.0522 -1.85438,0.32564 -2.86555,0.60719 -1.66089,0.46243 -1.93079,0.46005 -2.79431,-0.0245 -0.52573,-0.29505 -1.32133,-1.14297 -1.768,-1.88427 -0.8251,-1.36925 -1.77203,-2.00407 -2.98936,-2.00407 -0.72238,0 -2.58393,1.04542 -5.92612,3.32809 -2.64122,1.80389 -4.43641,2.12326 -6.38064,1.13519 -1.62352,-0.8251 -2.38098,-2.2467 -2.2214,-4.16913 l 0.10862,-1.30798 -2.50796,0.003 c -3.942299,0.005 -7.163669,1.27243 -10.779375,4.23674 -1.030031,0.84445 -2.436131,1.82917 -3.124679,2.18823 -1.687615,0.88011 -4.192827,0.87323 -5.399095,-0.0147 z m 40.95022,-10.9916 c -0.22465,-0.67263 -1.9613,-1.50547 -3.13915,-1.50547 -0.50401,0 -1.99734,0.32512 -3.31852,0.72248 -3.77038,1.13405 -5.26108,1.00696 -10.19679,-0.86925 -3.98598,-1.51519 -4.40937,-1.6092 -6.471085,-1.43695 -1.266092,0.10566 -3.709968,0.70924 -5.735712,1.41631 -2.33303,0.81431 -4.381973,1.29525 -6.043643,1.41855 -2.36479,0.17546 -2.696424,0.11175 -5.588652,-1.07415 -5.066699,-2.07742 -6.733259,-2.54256 -9.109901,-2.54256 -3.371753,0 -6.881658,1.28765 -9.445023,3.46502 -0.911377,0.77416 -1.726905,0.59143 -1.726905,-0.38692 0,-0.69808 2.541175,-2.74323 4.33855,-3.49168 0.960527,-0.39997 1.235253,-1.03792 0.631584,-1.46655 -0.178395,-0.1267 -0.640378,-1.01007 -1.026607,-1.9631 -1.601514,-3.95166 -0.597586,-8.8419 2.493918,-12.14802 2.204749,-2.35781 4.338058,-3.40025 7.240039,-3.53785 2.919222,-0.13843 4.54566,0.66998 5.835243,2.90029 0.677153,1.17112 0.918592,1.37493 1.252115,1.05692 0.566891,-0.54053 1.353526,0.22598 1.241331,1.20957 -0.0467,0.40931 0.385487,1.54355 0.976759,2.5636 0.583258,1.00624 1.417594,2.55879 1.854084,3.45012 0.672305,1.37289 0.891668,1.58499 1.435169,1.38753 1.793519,-0.65153 2.638616,-1.93064 3.8476,-5.82351 0.892934,-2.87524 1.71721,-4.32774 5.101814,-8.9903 4.465012,-6.1509 9.392522,-11.93052 10.543742,-12.36704 1.60644,-0.60911 3.16949,0.0661 7.26403,3.13807 5.71361,4.28669 9.43213,8.88204 13.73954,16.97939 0.69211,1.30107 1.85536,3.12594 2.585,4.05526 1.49457,1.90363 2.53743,4.23977 3.03869,6.80718 0.41514,2.12609 0.18678,3.31793 -0.77434,4.04145 -0.6493,0.4888 -0.80437,0.49454 -1.39249,0.0516 -0.36399,-0.27415 -0.83923,-1.09004 -1.05608,-1.81307 -0.47855,-1.59562 -2.27786,-4.73676 -2.86049,-4.99364 -0.3175,-0.13997 -0.42199,0.10985 -0.42199,1.00837 0,2.60544 -1.27168,3.3293 -2.34465,1.33465 -0.34531,-0.6419 -1.02473,-2.58081 -1.50985,-4.30873 -1.06804,-3.80416 -1.8429,-5.22173 -3.8659,-7.07261 -1.55166,-1.41963 -6.28147,-4.19376 -8.7514,-5.13288 l -1.32362,-0.50326 -0.32209,1.42063 c -0.37232,1.64219 -1.15864,3.13835 -1.88367,3.58414 -0.35736,0.21975 -0.55124,0.9004 -0.66424,2.33203 -0.17389,2.20313 -1.18314,5.06156 -2.4734,7.00505 l -0.82068,1.23619 1.46427,1.48918 c 1.93012,1.96293 3.90889,3.24183 6.64883,4.29719 l 2.24314,0.86403 2.43839,-0.70844 c 2.62683,-0.76319 4.3322,-0.70095 5.87266,0.21427 1.05033,0.62402 1.89219,1.9955 1.65704,2.69953 -0.22244,0.666 -1.25294,0.65718 -1.47666,-0.0128 z M 87.002162,186.9978 c 0.406185,-2.12473 -0.769046,-6.69215 -2.693546,-10.4682 l -0.755794,-1.48295 -0.919728,1.982 c -0.919003,1.98041 -2.296609,3.38618 -3.623042,3.69715 -2.27261,0.53275 -2.10872,0.35535 -2.098615,2.27174 l 0.0089,1.77378 4.014053,1.57956 c 2.20773,0.86876 4.433713,1.59111 4.946632,1.60521 0.798195,0.0219 0.959682,-0.11606 1.120679,-0.95829 z m 7.800406,-0.6207 c 5.312562,-1.75912 7.860782,-1.67039 12.500902,0.43541 0.32357,0.14685 -0.23699,-0.45364 -1.24568,-1.33437 -1.0087,-0.88075 -2.16348,-2.08442 -2.56618,-2.67481 -0.5568,-0.81629 -0.96304,-1.07345 -1.69571,-1.07345 -0.75126,0 -0.98271,-0.1546 -1.05078,-0.7019 -0.0669,-0.5371 0.19648,-0.84893 1.12144,-1.32813 0.66485,-0.34446 1.52112,-1.05271 1.90283,-1.57394 0.94402,-1.28893 1.89351,-4.32551 2.11549,-6.76546 0.14103,-1.55038 0.33028,-2.12686 0.81891,-2.4947 0.89338,-0.67253 1.92333,-2.911 1.92333,-4.18007 0,-0.588 -0.21045,-1.53666 -0.46768,-2.10812 -0.42992,-0.95518 -0.42838,-1.0834 0.019,-1.58843 0.44998,-0.50798 0.53006,-0.48572 1.06299,0.29548 1.34694,1.97441 2.23131,2.73478 4.34951,3.73971 7.29971,3.46311 10.67837,6.73927 11.82627,11.46751 0.37219,1.53312 0.8583,2.52836 0.8583,1.75727 0,-0.55411 1.32253,-0.51091 2.30944,0.0755 1.00759,0.59863 3.06717,3.13678 3.71714,4.58089 0.75229,1.67135 0.83104,0.99225 0.13338,-1.15006 -0.34427,-1.05714 -1.38864,-3.01606 -2.32082,-4.35316 -0.93219,-1.33713 -2.38898,-3.72371 -3.23728,-5.30359 -2.39709,-4.46427 -4.19603,-7.08817 -6.91812,-10.09062 -3.86083,-4.2585 -9.85441,-8.4878 -11.3978,-8.04276 -1.32146,0.38106 -12.39377,14.69367 -13.728952,17.74673 -0.296215,0.67733 -0.706926,1.83981 -0.912678,2.58325 -0.979793,3.54035 -2.366947,5.6167 -4.398117,6.58332 -0.81438,0.38756 -0.921161,0.57329 -0.762742,1.32688 0.101265,0.48191 0.262964,1.98632 0.359214,3.34312 l 0.175005,2.46689 0.916337,-0.21043 c 0.503981,-0.11571 2.570859,-0.7583 4.593075,-1.42791 z m -23.98309,-5.1198 c 1.814263,-1.59764 3.019087,-2.24765 4.569886,-2.46552 0.623079,-0.0874 0.760852,-0.32292 0.902406,-1.54137 0.193872,-1.66889 1.348826,-3.25383 2.814967,-3.86293 0.52665,-0.21878 0.890588,-0.52223 0.808767,-0.67434 -0.292846,-0.54443 -3.152959,-0.28273 -4.35974,0.39891 -1.612587,0.91085 -5.358685,4.52439 -6.068801,5.85404 -0.943093,1.76593 -1.323087,3.94657 -0.687701,3.94657 0.07726,0 0.986307,-0.74491 2.020216,-1.65536 z m -0.468173,-5.83093 c 3.61663,-3.82827 6.339148,-5.35686 8.742814,-4.90871 1.304123,0.24315 1.21713,-0.30401 -0.190758,-1.19973 -1.38978,-0.88421 -4.593631,-0.68238 -6.455385,0.40669 -3.72878,2.18118 -6.049002,6.29332 -5.416819,9.60023 l 0.196928,1.03013 0.586803,-1.43247 c 0.322753,-0.78784 1.46413,-2.36111 2.536417,-3.49614 z m 32.848485,-27.15809 c -1.67745,-2.10409 -2.10364,-3.8806 -0.93092,-3.8806 0.54601,0 2.82858,3.27888 2.82858,4.06325 0,1.14992 -0.90468,1.06285 -1.89766,-0.18265 z m 8.41617,0.0714 c -0.25488,-0.35284 -0.19015,-0.95651 0.2706,-2.52407 0.67956,-2.3119 1.26786,-3.12043 1.81393,-2.49301 0.2602,0.29895 0.25299,0.77658 -0.0303,1.99287 -0.69547,2.98755 -1.36689,3.97591 -2.05436,3.02421 z m -4.68097,-1.33296 c -0.16142,-0.23231 -0.42462,-1.79106 -0.58488,-3.46386 -0.22854,-2.38492 -0.2096,-3.14258 0.0877,-3.51006 0.85321,-1.05504 1.23405,-0.19109 1.45103,3.29187 0.11584,1.85938 0.12299,3.54358 0.0159,3.74262 -0.25788,0.47941 -0.60978,0.45744 -0.96965,-0.0604 z"
       id="path1"
       inkscape:export-filename="swimmer.svg"
       inkscape:export-xdpi="96"
       inkscape:export-ydpi="96" /></g></svg>
