<?xml version="1.0" encoding="UTF-8" standalone="no"?>
<!-- Created with Inkscape (http://www.inkscape.org/) -->

<svg
   width="58.547935mm"
   height="58.611282mm"
   viewBox="0 0 58.547935 58.611282"
   version="1.1"
   id="svg1"
   xml:space="preserve"
   xmlns="http://www.w3.org/2000/svg"
   xmlns:svg="http://www.w3.org/2000/svg"><defs
     id="defs1" /><g
     id="layer1"
     transform="translate(-102.61756,-212.92474)"><path
       style="fill:#000000"
       d="m 106.18954,271.41312 c -0.29104,-0.12242 -1.21378,-0.94204 -2.05052,-1.82137 -2.43468,-2.5586 -2.58946,-2.23122 4.39111,-9.28751 5.62856,-5.68961 5.97098,-6.09418 7.13089,-8.42519 2.09996,-4.2202 4.66892,-13.25179 4.6845,-16.46912 0.0247,-5.10929 3.11862,-11.41094 7.73402,-15.75278 10.3459,-9.73268 25.54161,-8.77188 31.12924,1.96825 1.43743,2.76293 1.9644,5.05026 1.95664,8.49286 -0.0137,6.07133 -2.50496,11.76323 -7.18872,16.42428 -4.48655,4.46479 -9.38516,6.74697 -15.80526,7.36339 -4.70669,0.4519 -11.19128,2.28687 -15.71003,4.44551 -2.4534,1.17202 -2.65597,1.34195 -8.46666,7.1029 -3.61268,3.58174 -6.21318,5.95703 -6.61459,6.04175 -0.3638,0.0768 -0.89958,0.0394 -1.19062,-0.083 z m 5.95031,-6.23475 4.88661,-4.89198 -1.57654,-1.59316 -1.57654,-1.59317 -4.83411,4.82882 c -2.65876,2.65584 -4.83411,5.02208 -4.83411,5.2583 0,0.42227 2.42032,2.88316 2.83562,2.88316 0.11685,0 2.41143,-2.20139 5.09907,-4.89197 z m 9.67754,-8.28124 c 3.91116,-1.96941 12.55443,-4.36114 16.83816,-4.65938 12.42391,-0.86498 22.84868,-13.57314 20.74357,-25.28713 -1.07471,-5.98024 -5.46499,-10.66061 -11.28712,-12.03289 -8.87741,-2.09242 -19.52435,3.52044 -24.06129,12.68466 -1.23609,2.49679 -2.11846,5.72557 -2.11846,7.75186 0,4.15109 -3.35573,15.09422 -5.85139,19.08156 l -1.06132,1.69567 0.53859,0.53859 c 0.29622,0.29622 0.58219,0.48567 0.63548,0.42099 1.35104,-1.63966 3.79183,-6.98297 4.84973,-10.6169 1.08125,-3.71414 1.55031,-3.94479 2.95622,-1.45364 1.03911,1.84119 3.01205,3.82096 5.07946,5.09704 2.38388,1.47142 2.20416,1.81308 -1.59052,3.02365 -4.0988,1.30758 -6.09561,2.15615 -8.53069,3.62522 l -2.04839,1.23579 0.5623,0.59855 0.56231,0.59855 1.08921,-0.74702 c 0.59907,-0.41086 1.81143,-1.11069 2.69415,-1.55517 z m 11.49194,-7.41826 c -2.27107,-0.75891 -3.6775,-1.57835 -5.23155,-3.0481 -1.61886,-1.53106 -2.44487,-2.81435 -3.27551,-5.08886 -0.83984,-2.29973 -0.83727,-6.64542 0.006,-9.36017 2.73453,-8.80816 10.65892,-15.11447 19.08487,-15.18794 4.03359,-0.0352 7.2279,1.1924 9.79081,3.76258 4.30849,4.32073 4.88811,10.96959 1.5479,17.75621 -1.19533,2.42867 -1.67682,3.08471 -3.90372,5.31899 -4.30833,4.3226 -8.11208,6.07863 -13.52041,6.24178 -2.42925,0.0733 -3.3361,-0.006 -4.49792,-0.39449 z m 3.0429,-1.89791 -0.76027,-0.79355 -0.61498,0.57775 c -0.75045,0.70501 -0.43016,0.99937 1.09383,1.0053 l 1.04169,0.004 z m 4.03505,-3.10175 -1.24947,-1.24946 -1.19543,1.17323 -1.19544,1.17323 1.25102,1.27011 1.25102,1.27012 1.19388,-1.19388 1.19388,-1.19388 z m 2.58778,2.82331 c 0.29136,-0.47142 -0.36432,-0.47019 -0.79118,0.001 -0.43638,0.48219 -0.4319,0.49807 0.10105,0.3587 0.30671,-0.0802 0.61726,-0.24229 0.69013,-0.36019 z m -9.39585,-0.65327 0.90285,-0.9315 -1.24782,-1.24783 -1.24783,-1.24782 -1.25172,1.25173 -1.25173,1.25172 0.63989,0.46459 c 0.7224,0.52448 2.18495,1.36273 2.40697,1.37953 0.0806,0.006 0.55282,-0.40809 1.04939,-0.92042 z m 12.91071,-0.99827 1.38212,-0.87145 -0.80194,-0.76831 -0.80195,-0.76831 -1.18306,1.16108 c -1.11106,1.09042 -1.15669,1.19022 -0.74986,1.63976 0.56219,0.62121 0.54014,0.62523 2.15469,-0.39277 z m -16.6753,-2.37968 1.11339,-1.13446 -1.26846,-1.24939 -1.26846,-1.24938 -0.84817,0.87508 c -0.4665,0.4813 -0.84817,1.03554 -0.84817,1.23163 0,0.5071 1.40057,2.65994 1.73085,2.66051 0.1516,2.6e-4 0.77666,-0.51004 1.38902,-1.13399 z m 7.14375,0 1.11339,-1.13446 -1.26682,-1.24777 -1.26683,-1.24778 -1.16948,1.19161 -1.16948,1.19161 1.16851,1.19063 c 0.64268,0.65484 1.238,1.19062 1.32292,1.19062 0.0849,0 0.65543,-0.51051 1.26779,-1.13446 z m 7.14375,0 1.11339,-1.13446 -1.26682,-1.24777 -1.26683,-1.24778 -1.16948,1.19161 -1.16948,1.19161 1.16851,1.19063 c 0.64268,0.65484 1.238,1.19062 1.32292,1.19062 0.0849,0 0.65543,-0.51051 1.26779,-1.13446 z m 6.35216,-0.79595 1.11555,-1.13666 -0.87383,-0.84695 -0.87383,-0.84695 -1.16493,1.18698 -1.16493,1.18698 0.76322,0.79663 c 0.41977,0.43815 0.83522,0.79663 0.92321,0.79663 0.088,0 0.66199,-0.5115 1.27554,-1.13666 z m -17.21075,-5.13989 -1.24947,-1.24946 -1.19543,1.17323 -1.19544,1.17323 1.25102,1.27011 1.25102,1.27012 1.19388,-1.19388 1.19388,-1.19388 z m 7.14375,0 -1.24947,-1.24946 -1.19543,1.17323 -1.19544,1.17323 1.25102,1.27011 1.25102,1.27012 1.19388,-1.19388 1.19388,-1.19388 z m 7.14375,0 -1.24947,-1.24946 -1.19543,1.17323 -1.19544,1.17323 1.25102,1.27011 1.25102,1.27012 1.19388,-1.19388 1.19388,-1.19388 z m 6.19464,0.62017 c 0.4845,-0.936 0.49437,-1.06296 0.11239,-1.44494 -0.38198,-0.38199 -0.52331,-0.31619 -1.60852,0.74887 l -1.18975,1.16765 0.72072,0.75227 c 0.67893,0.70865 0.74141,0.72473 1.07736,0.2773 0.19615,-0.26124 0.59566,-0.93675 0.8878,-1.50115 z m -26.88911,1.14794 c 0.47854,-0.52878 0.47135,-0.55676 -0.35586,-1.38398 -0.76752,-0.76751 -0.84429,-0.79362 -0.84429,-0.28713 0,0.88449 0.3127,2.2108 0.52124,2.2108 0.10477,0 0.41029,-0.24286 0.67891,-0.53969 z m 2.97806,-2.97602 1.11339,-1.13446 -1.26682,-1.24777 -1.26683,-1.24778 -1.16948,1.19161 -1.16948,1.19161 1.16851,1.19063 c 0.64268,0.65484 1.238,1.19062 1.32292,1.19062 0.0849,0 0.65543,-0.51051 1.26779,-1.13446 z m 7.14375,0 1.11339,-1.13446 -1.26682,-1.24777 -1.26683,-1.24778 -1.16948,1.19161 -1.16948,1.19161 1.16851,1.19063 c 0.64268,0.65484 1.238,1.19062 1.32292,1.19062 0.0849,0 0.65543,-0.51051 1.26779,-1.13446 z m 7.14375,0 1.11339,-1.13446 -1.26682,-1.24777 -1.26683,-1.24778 -1.16948,1.19161 -1.16948,1.19161 1.16851,1.19063 c 0.64268,0.65484 1.238,1.19062 1.32292,1.19062 0.0849,0 0.65543,-0.51051 1.26779,-1.13446 z m 7.14375,0 1.11339,-1.13446 -1.26682,-1.24777 -1.26683,-1.24778 -1.16948,1.19161 -1.16948,1.19161 1.16851,1.19063 c 0.64268,0.65484 1.238,1.19062 1.32292,1.19062 0.0849,0 0.65543,-0.51051 1.26779,-1.13446 z m -18.00234,-5.93584 -1.24947,-1.24946 -1.19543,1.17323 -1.19544,1.17323 1.25102,1.27011 1.25102,1.27012 1.19388,-1.19388 1.19388,-1.19388 z m 7.14375,0 -1.24947,-1.24946 -1.19543,1.17323 -1.19544,1.17323 1.25102,1.27011 1.25102,1.27012 1.19388,-1.19388 1.19388,-1.19388 z m 7.14375,0 -1.24947,-1.24946 -1.19543,1.17323 -1.19544,1.17323 1.25102,1.27011 1.25102,1.27012 1.19388,-1.19388 1.19388,-1.19388 z m 7.14375,0 -1.24947,-1.24946 -1.19543,1.17323 -1.19544,1.17323 1.25102,1.27011 1.25102,1.27012 1.19388,-1.19388 1.19388,-1.19388 z m -27.58492,0.98203 c -0.22896,-0.37046 -0.64881,0.13362 -0.65565,0.78715 -0.003,0.32304 0.0671,0.31627 0.42413,-0.0408 0.23591,-0.2359 0.33987,-0.57108 0.23152,-0.7464 z m 2.72815,-2.19339 1.11678,-1.13791 -0.79435,-0.76103 c -0.43689,-0.41857 -0.84147,-0.71018 -0.89907,-0.64803 -0.0576,0.0622 -0.47447,0.70015 -0.92638,1.41776 -0.76882,1.22086 -0.79365,1.3357 -0.38619,1.78594 0.2395,0.26465 0.51128,0.48118 0.60395,0.48118 0.0927,0 0.67104,-0.51206 1.28526,-1.13791 z m 7.14036,0.003 1.11339,-1.13446 -1.26682,-1.24777 -1.26683,-1.24778 -1.16948,1.19161 -1.16948,1.19161 1.16851,1.19063 c 0.64268,0.65484 1.238,1.19062 1.32292,1.19062 0.0849,0 0.65543,-0.51051 1.26779,-1.13446 z m 7.14375,0 1.11339,-1.13446 -1.26682,-1.24777 -1.26683,-1.24778 -1.16948,1.19161 -1.16948,1.19161 1.16851,1.19063 c 0.64268,0.65484 1.238,1.19062 1.32292,1.19062 0.0849,0 0.65543,-0.51051 1.26779,-1.13446 z m 7.14375,0 1.11339,-1.13446 -1.26682,-1.24777 -1.26683,-1.24778 -1.16948,1.19161 -1.16948,1.19161 1.16851,1.19063 c 0.64268,0.65484 1.238,1.19062 1.32292,1.19062 0.0849,0 0.65543,-0.51051 1.26779,-1.13446 z m 4.41848,-1.25712 c -0.1685,-0.76719 -0.22201,-0.80483 -0.6028,-0.42403 -0.3808,0.3808 -0.37459,0.46573 0.0699,0.95691 0.26829,0.29647 0.53956,0.48728 0.6028,0.42403 0.0632,-0.0632 0.0318,-0.49385 -0.0699,-0.95691 z m -22.02556,-4.28024 -0.8526,-0.8526 -1.19287,1.17071 -1.19288,1.17072 0.85019,0.87717 0.85018,0.87717 1.19529,-1.19529 1.19529,-1.19529 z m 6.74849,-0.39848 -1.24947,-1.24946 -1.19543,1.17323 -1.19544,1.17323 1.25102,1.27011 1.25102,1.27012 1.19388,-1.19388 1.19388,-1.19388 z m 7.14375,0 -1.24947,-1.24946 -1.19543,1.17323 -1.19544,1.17323 1.25102,1.27011 1.25102,1.27012 1.19388,-1.19388 1.19388,-1.19388 z m 6.90079,1.14661 c -0.30066,-0.59827 -0.73277,-1.29939 -0.96026,-1.55804 -0.3912,-0.44478 -0.46848,-0.41669 -1.42607,0.51837 l -1.01245,0.98863 1.24631,1.26534 1.24631,1.26534 0.7264,-0.69593 0.7264,-0.69594 z m -17.46555,-2.36256 c 1.07113,-1.0914 1.09982,-1.16193 0.64154,-1.57667 -0.44797,-0.4054 -0.57116,-0.38195 -1.85994,0.35411 -0.75912,0.43355 -1.38021,0.86748 -1.38021,0.9643 0,0.22786 1.10021,1.40076 1.31395,1.40076 0.0899,0 0.66795,-0.51413 1.28466,-1.1425 z m 7.13641,0.007 1.11394,-1.13503 -1.13501,-1.11393 c -0.62426,-0.61267 -1.25518,-1.11394 -1.40204,-1.11394 -0.14686,0 -0.73237,0.47657 -1.30114,1.05905 l -1.03413,1.05904 1.16781,1.18992 c 0.6423,0.65445 1.2373,1.18991 1.32222,1.18991 0.0849,0 0.65568,-0.51076 1.26835,-1.13502 z m 6.94798,0.18849 0.91179,-0.94653 -0.79052,-0.63493 c -0.43478,-0.34921 -1.12831,-0.77485 -1.54117,-0.94586 -0.67299,-0.27876 -0.82301,-0.23859 -1.44988,0.38829 l -0.69922,0.69922 1.171,1.19317 c 0.64406,0.65624 1.24193,1.19317 1.32861,1.19317 0.0867,0 0.5679,-0.42594 1.06939,-0.94653 z m -11.52362,-2.75764 c 0.0899,-0.14552 0.0374,-0.26458 -0.11668,-0.26458 -0.15411,0 -0.2802,0.11906 -0.2802,0.26458 0,0.14553 0.0525,0.26459 0.11668,0.26459 0.0642,0 0.19026,-0.11906 0.2802,-0.26459 z m 7.54062,-0.53261 c 0,-0.11178 -0.4148,-0.25167 -0.92178,-0.31085 l -0.92178,-0.10762 0.56792,0.60453 c 0.43289,0.46079 0.65207,0.5347 0.92178,0.31085 0.19463,-0.16152 0.35386,-0.38513 0.35386,-0.49691 z m -23.94479,34.28055 c 1.60073,-0.6587 3.29737,-1.27189 3.77031,-1.36265 0.47295,-0.0907 0.85909,-0.24106 0.85809,-0.334 -9.9e-4,-0.0929 -0.41232,-0.44854 -0.91405,-0.7902 -0.97561,-0.66435 -2.92454,-2.67754 -3.59375,-3.71224 -0.39922,-0.61726 -0.42123,-0.58693 -1.15218,1.5875 -0.40985,1.21923 -1.14682,3.09185 -1.63771,4.16139 -0.49089,1.06953 -0.74596,1.87783 -0.56683,1.79622 0.17914,-0.0816 1.63539,-0.68732 3.23612,-1.34602 z m 26.11569,16.56674 c -3.76262,-1.34222 -6.10437,-4.97645 -5.81476,-9.02411 0.22976,-3.21123 2.06212,-5.94429 4.92934,-7.35234 1.2992,-0.63802 1.80126,-0.73234 3.8739,-0.72776 1.93972,0.004 2.60869,0.11744 3.60789,0.61029 1.87379,0.92423 3.21659,2.2176 4.21588,4.06069 0.84426,1.55716 0.90711,1.83965 0.90222,4.05501 -0.004,1.98313 -0.11355,2.60243 -0.65301,3.70417 -0.83458,1.70448 -2.69167,3.55301 -4.36882,4.34868 -1.82696,0.86675 -4.77344,1.01 -6.69264,0.32537 z m 5.90444,-1.72597 c 2.42143,-1.12759 3.98187,-3.23335 4.28354,-5.78051 l 0.15883,-1.34104 -1.2897,0.19341 c -3.36666,0.50486 -5.92087,3.05359 -6.37412,6.36046 l -0.16331,1.19147 1.02815,-0.003 c 0.56548,-10e-4 1.62596,-0.28097 2.35661,-0.62121 z m -4.78318,-0.89756 c 0.54773,-3.88371 3.6435,-6.87614 7.88649,-7.62325 0.5457,-0.0961 0.99219,-0.22573 0.99219,-0.28809 0,-0.41183 -1.1777,-2.28763 -1.87244,-2.98237 -0.8734,-0.8734 -2.60347,-1.87244 -3.24258,-1.87244 -0.23582,0 -0.43785,0.41472 -0.5478,1.12448 -0.27477,1.77366 -1.39176,3.7734 -2.82997,5.06647 -1.33667,1.20178 -3.65454,2.27572 -4.91167,2.27572 -0.62192,0 -0.66984,0.0738 -0.52336,0.80624 0.26807,1.34036 1.67961,3.10736 3.16092,3.95692 0.7558,0.43347 1.44997,0.78924 1.54258,0.79061 0.0926,10e-4 0.24816,-0.56307 0.34564,-1.25429 z m -2.88044,-6.32984 c 2.32975,-0.79383 4.61537,-3.80801 4.61537,-6.08656 0,-0.4952 -0.1411,-0.6132 -0.72761,-0.60852 -0.87713,0.007 -2.77974,0.83959 -3.93873,1.7236 -0.97964,0.74721 -2.47741,3.56623 -2.47741,4.66285 0,0.90972 0.56268,0.97841 2.52838,0.30863 z"
       id="path2" /></g></svg>
