<?xml version="1.0" encoding="UTF-8" standalone="no"?>
<!-- Created with Inkscape (http://www.inkscape.org/) -->

<svg
   width="43.727215mm"
   height="43.72448mm"
   viewBox="0 0 43.727215 43.72448"
   version="1.1"
   id="svg1"
   xml:space="preserve"
   xmlns="http://www.w3.org/2000/svg"
   xmlns:svg="http://www.w3.org/2000/svg"><defs
     id="defs1" /><g
     id="layer1"
     transform="translate(-24.814717,-87.2171)"><path
       style="fill:#ffcc00"
       d="m 45.483748,130.91239 c -7.87142,-0.43178 -14.949693,-5.1144 -18.416303,-12.18328 -4.175811,-8.51503 -2.440058,-18.65688 4.326002,-25.276447 3.967751,-3.881845 9.126021,-6.063001 14.725301,-6.226537 4.45943,-0.130245 8.90734,1.152169 12.6746,3.654316 4.87622,3.2387 8.26502,8.352027 9.36626,14.132668 0.60199,3.15995 0.49223,6.40299 -0.32323,9.5504 -1.34813,5.20335 -4.58022,9.74615 -9.04303,12.71027 -2.09525,1.39163 -4.44214,2.42534 -6.8834,3.03186 -2.00795,0.49886 -4.35432,0.7204 -6.4262,0.60675 z m 3.61796,-0.90111 c 2.05772,-0.25937 4.026,-0.78343 5.83084,-1.55247 6.35089,-2.70611 10.99194,-8.38116 12.37365,-15.13044 0.33521,-1.63741 0.39977,-2.32379 0.39985,-4.25126 9e-5,-1.9022 -0.0614,-2.5736 -0.38134,-4.1656 -1.7267,-8.591261 -8.62645,-15.235263 -17.26896,-16.628855 -1.2857,-0.207317 -1.71597,-0.236785 -3.429,-0.234846 -1.4534,0.0016 -1.79128,0.01734 -2.54,0.118018 -2.04582,0.275082 -3.89838,0.775778 -5.6629,1.530529 -6.434378,2.752219 -11.029312,8.412333 -12.413674,15.291354 -0.293927,1.46055 -0.361056,2.22088 -0.361056,4.0894 0,1.86853 0.06713,2.62886 0.361056,4.0894 1.007554,5.00663 3.719151,9.40759 7.718204,12.52674 3.27602,2.55521 7.08867,4.02313 11.45057,4.40861 0.56916,0.0503 3.30658,-0.0129 3.92276,-0.0906 z m 3.24942,-12.72786 c -0.0926,-0.0228 -0.22702,-0.0954 -0.29865,-0.16147 -0.27292,-0.25156 -0.26953,-0.20763 -0.26953,-3.49661 v -3.04963 h -0.29887 c -0.32728,0 -0.35928,0.0342 -0.36084,0.38528 -8.3e-4,0.1889 -0.15735,0.41901 -1.05444,1.55024 l -0.66476,0.83825 -0.017,1.15758 -0.017,1.15758 -0.14253,0.12254 c -0.18544,0.15942 -0.39381,0.15624 -0.59017,-0.009 l -0.1563,-0.13152 v -1.2898 -1.28979 l 0.9144,-1.14937 0.9144,-1.14937 v -1.55956 -1.55955 l -0.16826,-0.16308 -0.16825,-0.16308 -1.64785,0.0134 -1.64784,0.0134 0.0168,0.3302 c 0.0211,0.41635 0.16171,0.72273 0.39894,0.86934 0.16558,0.10234 0.69966,0.17247 1.47892,0.19421 0.16124,0.004 0.36599,0.22279 0.36599,0.3902 0,0.10826 -0.12765,0.26392 -0.59918,0.73065 -0.83331,0.82483 -1.05768,1.17702 -1.20558,1.89238 -0.0507,0.24528 -0.11172,0.3979 -0.18271,0.45712 -0.28164,0.23492 -0.70493,-0.0232 -0.70493,-0.42992 0,-0.26806 0.11545,-0.73041 0.25399,-1.01714 0.0559,-0.11568 0.10161,-0.21746 0.10161,-0.22618 0,-0.009 -0.78867,-0.0159 -1.7526,-0.0159 h -1.7526 v 0.17462 c 0,0.13366 0.15489,0.43227 0.6604,1.27318 l 0.6604,1.09857 v 1.2877 1.2877 l -0.1563,0.13152 c -0.19677,0.16557 -0.39907,0.16802 -0.57288,0.007 l -0.13442,-0.12458 v -1.13971 -1.1397 l -0.53379,-0.89751 c -0.72425,-1.21775 -0.75422,-1.27989 -0.78527,-1.62853 l -0.0271,-0.3048 -0.3668,-0.0149 -0.3668,-0.0149 -0.0142,3.12271 c -0.0139,3.0634 -0.0162,3.12537 -0.11894,3.26296 -0.0576,0.0771 -0.16787,0.18738 -0.24502,0.24498 -0.13659,0.10198 -0.19777,0.10474 -2.31724,0.10474 -2.11947,0 -2.18065,-0.003 -2.31724,-0.10474 -0.0772,-0.0576 -0.18741,-0.16785 -0.24502,-0.24498 -0.10272,-0.13755 -0.10501,-0.19985 -0.11895,-3.23536 l -0.0142,-3.09512 h -0.30329 -0.30329 v 1.34872 c 0,1.48811 -0.009,1.53946 -0.31673,1.75878 -0.16454,0.11736 -0.17939,0.11842 -1.854602,0.13354 -2.480415,0.0224 -2.349397,0.12711 -2.349678,-1.87802 l -1.9e-4,-1.35479 -0.918886,-0.0168 -0.918886,-0.0168 -0.122514,-0.14253 -0.122514,-0.14253 v -1.61862 c 0,-0.89023 0.0142,-1.65561 0.03156,-1.70084 0.0727,-0.18946 0.285287,-0.23088 1.185121,-0.23088 h 0.866123 v -1.39523 -1.39523 l 0.152166,-0.17331 c 0.08369,-0.0953 0.216256,-0.19985 0.294588,-0.2323 0.101198,-0.0419 0.648984,-0.0548 1.892534,-0.0444 2.361592,0.0197 2.181912,-0.13375 2.181912,1.86397 v 1.37646 h 0.30329 0.30329 l 0.0142,-3.0861 c 0.0158,-3.43121 0.003,-3.30231 0.35958,-3.51995 0.15456,-0.0943 0.26972,-0.0992 2.32163,-0.0992 2.07562,0 2.16549,0.004 2.32705,0.10246 0.097,0.0592 0.20928,0.19326 0.26559,0.31731 0.0926,0.20409 0.0976,0.36687 0.0986,3.25015 l 10e-4,3.0353 h 0.34951 0.34951 l 0.0364,-0.58294 c 0.0334,-0.53518 0.0492,-0.60226 0.19269,-0.81885 0.15788,-0.23835 0.46538,-0.4979 0.69605,-0.58749 0.1491,-0.0579 0.64391,-0.0714 0.80021,-0.0218 0.0891,0.0283 0.12605,0.005 0.19204,-0.12301 0.33052,-0.63915 1.10347,-0.97871 1.67975,-0.73793 0.17805,0.0744 0.17825,0.0743 0.48125,-0.16984 0.61937,-0.49909 1.2042,-0.48414 1.83482,0.0469 0.23521,0.19808 0.23809,0.19893 0.41747,0.12398 0.44201,-0.18468 1.0649,-0.0211 1.40815,0.36987 0.29377,0.33459 0.33897,0.51044 0.37908,1.47498 l 0.0365,0.87891 0.19403,0.099 c 0.15591,0.0795 0.29898,0.099 0.72831,0.099 h 0.53429 l 0.0138,-3.1205 c 0.0136,-3.06147 0.0158,-3.12317 0.11858,-3.26077 0.0576,-0.0771 0.16786,-0.18738 0.24501,-0.24499 0.13648,-0.10191 0.19808,-0.10474 2.28286,-0.10474 1.95431,0 2.15706,0.008 2.30721,0.09 0.35943,0.19641 0.34058,0.0181 0.36878,3.48917 l 0.0254,3.12647 0.2921,0.0152 0.2921,0.0152 10e-4,-1.31063 c 10e-4,-1.18249 0.0106,-1.33164 0.0986,-1.52549 0.0563,-0.12405 0.16856,-0.25815 0.26559,-0.31731 0.16001,-0.0976 0.2527,-0.10247 1.93821,-0.10265 1.92841,-2e-4 1.91796,-0.002 2.14144,0.2962 0.095,0.12658 0.10258,0.22735 0.11656,1.54511 l 0.015,1.4097 h 0.90651 c 0.81664,0 0.91839,0.01 1.02643,0.0971 l 0.11993,0.097 0.0149,1.59205 c 0.008,0.87562 0.002,1.64406 -0.014,1.70763 -0.0159,0.0636 -0.074,0.16074 -0.12922,0.2159 -0.0924,0.0924 -0.17196,0.10031 -1.01245,0.10031 h -0.91213 l -0.015,1.42612 -0.015,1.42612 -0.21393,0.19948 -0.21394,0.19948 -1.79266,-1.9e-4 c -1.70809,-1.8e-4 -1.8006,-0.005 -1.96072,-0.10265 -0.097,-0.0592 -0.20928,-0.19326 -0.26559,-0.31731 -0.088,-0.19384 -0.0976,-0.34299 -0.0986,-1.52548 l -10e-4,-1.31064 -0.2921,0.0152 -0.2921,0.0152 -0.0254,3.12648 c -0.0282,3.47107 -0.009,3.29276 -0.36878,3.48917 -0.1489,0.0814 -0.35866,0.0908 -2.19662,0.099 -1.1176,0.005 -2.10779,-0.01 -2.20042,-0.0324 z m 4.05462,-8.61271 v -7.8994 h -1.9304 -1.9304 v 7.8994 7.8994 h 1.9304 1.9304 z m -15.6972,-0.0508 v -7.8994 h -1.9304 -1.9304 v 7.8994 7.8994 h 1.9304 1.9304 z m 20.86638,0.0381 0.013,-4.4323 h -1.54968 -1.54968 v 4.44575 4.44574 l 1.5367,-0.0134 1.5367,-0.0135 z m -26.8224,-0.0254 -0.013,-4.4323 h -1.524 -1.524 l -0.01298,4.4323 -0.01298,4.4323 h 1.549958 1.54996 z m 10.12952,1.0287 c 1.2809,0 2.32866,-0.0171 2.32837,-0.0381 -2.9e-4,-0.0209 -0.13261,-0.0995 -0.29404,-0.17462 -0.16143,-0.0751 -0.40022,-0.23046 -0.53065,-0.34527 l -0.23715,-0.20874 -0.26891,0.11667 c -0.38331,0.16629 -0.79217,0.15557 -1.15211,-0.0302 l -0.27358,-0.14121 -0.3532,0.1628 c -0.32079,0.14786 -0.38176,0.15957 -0.66437,0.1276 -0.39879,-0.0451 -0.79858,-0.24185 -1.05352,-0.51842 -0.19947,-0.21641 -0.20114,-0.2216 -0.20114,-0.62575 v -0.40754 h -0.3556 -0.3556 v 1.07452 1.07452 l 0.5413,-0.0331 c 0.29772,-0.0182 1.58931,-0.0331 2.8702,-0.0331 z m 6.9009,-0.9906 v -1.0414 h -0.3048 -0.3048 v 1.0414 1.0414 h 0.3048 0.3048 z m 5.9436,0 v -1.0414 h -0.3048 -0.3048 v 1.0414 1.0414 h 0.3048 0.3048 z m 5.7912,0 v -1.0414 h -0.6096 -0.6096 v 1.0414 1.0414 h 0.6096 0.6096 z m -32.5628,-0.0508 v -1.0414 h -0.6096 -0.6096 v 1.0414 1.0414 h 0.6096 0.6096 z m 5.1308,-0.003 v -1.04394 l -0.2921,0.0152 -0.2921,0.0152 -0.0137,1.0287 -0.0138,1.0287 h 0.30585 0.30585 z m 7.74931,-0.50316 c 0.12464,-0.12464 0.12469,-0.12514 0.12469,-1.21468 v -1.09 l -0.1563,-0.13151 c -0.086,-0.0723 -0.20994,-0.13152 -0.2755,-0.13152 -0.0656,0 -0.18954,0.0592 -0.2755,0.13152 l -0.1563,0.13151 v 1.09 c 0,1.08954 5e-5,1.09004 0.12469,1.21468 0.16965,0.16965 0.44457,0.16965 0.61422,0 z m 1.79792,-0.007 0.15702,-0.13212 -0.0134,-1.55498 -0.0134,-1.55497 -0.17261,-0.1163 c -0.21634,-0.14576 -0.30204,-0.14576 -0.51838,0 l -0.17261,0.1163 -0.0135,1.54383 -0.0135,1.54383 0.13727,0.14327 c 0.1794,0.18725 0.40891,0.19136 0.62308,0.0111 z m 1.93357,-2.62516 c 0,-1.0706 -0.0185,-1.14847 -0.29487,-1.24483 -0.17516,-0.0611 -0.43177,0.0311 -0.51393,0.18465 -0.0337,0.063 -0.0548,0.47526 -0.0548,1.07093 v 0.96854 h 0.4318 0.4318 z m 1.8288,0.29186 c 0,-0.7925 -0.0532,-0.98635 -0.29855,-1.08798 -0.12833,-0.0532 -0.18823,-0.0535 -0.31345,-0.002 -0.25778,0.10678 -0.3024,0.26366 -0.3024,1.06329 v 0.71372 h 0.4572 0.4572 z"
       id="path5" /></g></svg>
